<svg xmlns="http://www.w3.org/2000/svg" version="1.0" preserveAspectRatio="xMidYMid meet" viewBox="442 436.55 2674 906.46">

<g transform="translate(0.000000,1772.000000) scale(0.100000,-0.100000)" fill="#000000" stroke="none">
<path d="M11515 13353 c-88 -2 -402 -22 -450 -28 -222 -29 -320 -53 -433 -105 -183 -86 -272 -236 -302 -510 -21 -190 -30 -898 -17 -1275 25 -720 42 -810 182 -950 135 -136 269 -175 750 -220 106 -10 905 -13 1055 -4 545 33 745 104 874 312 80 129 118 316 134 657 15 333 6 1214 -14 1395 -35 321 -92 452 -241 551 -136 90 -330 138 -688 169 -69 6 -696 12 -850 8z m532 -337 c93 -30 140 -87 162 -196 64 -323 63 -1734 -2 -2037 -35 -164 -125 -208 -422 -207 -173 0 -227 11 -291 60 -103 77 -127 305 -127 1174 0 684 19 974 71 1093 25 57 86 102 155 116 29 6 61 13 72 15 11 3 90 3 175 2 111 -2 170 -8 207 -20z"/>
<path d="M15510 13353 c-328 -10 -628 -41 -760 -79 -270 -78 -386 -210 -433 -494 -50 -297 -37 -1768 18 -2033 50 -243 221 -387 525 -441 225 -41 677 -61 1130 -52 179 4 339 9 355 11 17 1 68 6 115 10 283 22 475 79 592 175 57 47 134 170 162 259 57 180 78 464 80 1061 3 1092 -47 1304 -339 1445 -140 68 -306 105 -565 126 -116 9 -708 17 -880 12z m474 -328 c216 -46 233 -122 243 -1110 7 -734 -11 -1076 -66 -1199 -22 -51 -79 -102 -128 -115 -138 -38 -394 -39 -494 -2 -173 65 -193 190 -193 1206 0 718 14 959 64 1090 26 69 102 120 198 134 96 14 301 12 376 -4z"/>
<path d="M23220 13344 c-324 -25 -417 -39 -531 -80 -221 -80 -363 -225 -414 -424 -25 -95 -26 -669 -2 -780 31 -142 117 -278 228 -362 212 -161 613 -239 1189 -233 240 3 277 6 463 41 l38 7 -3 -359 c-5 -416 -6 -423 -93 -510 -77 -78 -120 -89 -335 -89 -204 0 -266 13 -329 71 -70 62 -95 143 -114 359 -11 123 -13 130 -37 142 -19 10 -136 13 -492 13 -465 0 -516 -3 -519 -34 -4 -55 5 -230 17 -311 19 -134 36 -179 89 -247 145 -184 366 -269 770 -293 116 -7 1102 -7 1220 0 411 24 631 106 766 285 76 101 112 215 127 400 9 124 9 1458 0 1622 -14 230 -35 333 -90 442 -86 171 -309 282 -628 315 -58 6 -125 13 -150 16 -50 7 -1100 14 -1170 9z m774 -311 c83 -23 147 -85 173 -168 16 -54 18 -99 18 -430 0 -407 -4 -442 -62 -517 -70 -91 -154 -113 -403 -106 -190 5 -229 16 -299 88 -76 79 -84 117 -89 425 -4 317 7 492 35 556 47 106 125 157 257 170 112 10 299 1 370 -18z"/>
<path d="M18300 12941 c0 -317 2 -351 18 -370 17 -21 23 -21 405 -21 282 -1 393 2 403 11 11 9 14 43 14 146 0 162 10 192 72 225 l43 23 568 3 c312 1 567 -2 567 -6 0 -5 -213 -154 -472 -332 -260 -178 -516 -354 -568 -390 l-95 -66 -3 -227 -2 -227 337 0 c379 0 420 -5 506 -62 67 -45 107 -103 124 -181 17 -77 26 -420 13 -542 -13 -133 -41 -213 -95 -273 -58 -65 -120 -91 -248 -104 -191 -20 -363 25 -426 112 -67 93 -98 231 -99 445 -1 139 -4 161 -19 172 -13 10 -128 13 -504 13 -449 0 -488 -1 -508 -17 -20 -17 -20 -28 -22 -258 -2 -300 9 -356 98 -483 115 -163 318 -249 634 -267 57 -4 127 -8 154 -10 76 -6 1082 -6 1145 -1 30 3 98 8 150 11 184 10 346 47 470 108 67 33 103 59 171 127 156 154 190 276 189 688 0 208 -13 303 -54 396 -67 150 -238 279 -453 341 -163 48 -319 69 -598 80 -38 1 -72 3 -74 4 -3 1 393 286 966 695 l213 151 0 218 0 217 -1510 0 -1510 0 0 -349z"/>
<path d="M4500 11785 l0 -75 2290 0 2290 0 0 75 0 75 -2290 0 -2290 0 0 -75z"/>
<path d="M26540 11785 l0 -75 2290 0 2290 0 0 75 0 75 -2290 0 -2290 0 0 -75z"/>
<path d="M4420 8220 l0 -259 273 -3 c306 -3 327 -8 373 -78 l24 -36 -2 -1466 -3 -1466 -25 -27 c-14 -15 -43 -37 -65 -48 -38 -21 -56 -22 -307 -25 l-268 -3 0 -260 0 -259 1445 0 1445 0 0 259 0 260 -267 3 c-265 3 -269 3 -312 28 -24 14 -54 38 -65 53 l-21 28 0 1464 0 1464 21 28 c11 15 41 39 65 53 43 25 47 25 312 28 l267 3 0 260 0 259 -1445 0 -1445 0 0 -260z"/>
<path d="M8450 7845 c0 -622 0 -635 20 -655 19 -19 33 -20 303 -20 218 0 287 3 301 13 14 10 20 35 27 108 21 222 72 350 189 473 107 112 207 170 395 229 151 47 383 74 630 73 l90 -1 3 -1566 2 -1566 -22 -33 c-13 -19 -45 -45 -73 -59 l-49 -26 -348 -3 -348 -3 0 -260 0 -259 1610 2 1611 3 0 238 c-1 130 -1 246 -1 257 0 18 -11 19 -347 22 l-348 3 -45 25 c-24 14 -55 40 -67 59 l-23 34 0 1564 0 1564 143 -2 c585 -7 953 -215 1051 -597 9 -34 21 -106 26 -159 13 -142 -9 -133 329 -133 234 0 280 2 299 16 l22 15 0 640 0 639 -2690 0 -2690 0 0 -635z"/>
<path d="M16180 8465 c-9 -11 0 -48 50 -186 l61 -173 -77 -150 c-115 -225 -397 -773 -474 -921 -37 -71 -123 -238 -190 -370 -67 -132 -148 -289 -180 -350 -32 -60 -110 -213 -175 -340 -65 -126 -148 -288 -185 -360 -37 -71 -118 -229 -180 -350 -62 -121 -129 -245 -149 -275 -52 -79 -142 -164 -209 -197 -53 -26 -66 -28 -204 -31 l-148 -3 0 -230 0 -229 795 0 795 0 0 230 0 230 -169 0 c-168 0 -170 0 -200 26 -20 16 -31 35 -31 51 0 21 200 417 321 638 l28 50 818 3 819 2 157 -331 c169 -357 177 -382 131 -418 -25 -19 -40 -21 -205 -21 l-179 0 0 -230 0 -230 1235 0 1235 0 0 229 0 229 -137 4 c-128 3 -142 5 -197 32 -69 34 -165 126 -194 188 -11 24 -86 183 -167 353 -81 171 -164 346 -185 390 -20 44 -138 292 -260 550 -123 259 -235 497 -250 530 -15 33 -56 119 -90 190 -34 72 -77 162 -95 200 -18 39 -53 113 -78 165 -24 52 -149 316 -276 585 -144 304 -241 499 -257 513 l-25 22 -633 0 c-543 0 -635 -2 -646 -15z m596 -1790 c141 -302 267 -574 280 -602 l24 -53 -595 0 -595 0 306 611 c175 351 309 608 314 603 5 -5 124 -256 266 -559z"/>
<path d="M20840 8220 l0 -260 253 0 c142 0 268 -5 289 -10 48 -14 97 -55 114 -97 12 -27 14 -279 14 -1476 l0 -1444 -23 -34 c-12 -19 -43 -45 -67 -59 -44 -25 -48 -25 -312 -28 l-268 -3 0 -260 0 -259 2480 0 2480 0 0 23 c0 12 0 298 0 636 0 556 -2 616 -17 633 -15 17 -40 18 -355 18 -325 0 -339 -1 -358 -20 -11 -11 -20 -28 -20 -37 -1 -79 -15 -230 -26 -282 -63 -284 -353 -476 -811 -536 -88 -12 -228 -15 -614 -15 l-499 0 2 1579 c3 1563 3 1579 23 1601 11 12 38 32 60 44 38 20 56 21 308 24 l267 3 0 260 0 259 -1460 0 -1460 0 0 -260z"/>
<path d="M25830 8220 l0 -260 253 0 c343 -1 324 10 519 -280 61 -91 274 -408 473 -705 199 -297 426 -634 504 -750 l141 -210 -2 -551 -3 -552 -25 -27 c-14 -15 -43 -37 -65 -48 -38 -21 -56 -22 -307 -25 l-268 -3 0 -260 0 -259 1460 0 c1566 0 1463 -3 1463 45 0 8 -1 118 -2 244 l-1 230 -262 3 c-249 3 -265 4 -304 25 -23 12 -53 36 -68 53 l-26 32 0 561 0 562 621 915 c341 503 635 927 652 942 60 52 99 58 349 58 l228 0 0 260 0 260 -835 0 -835 0 0 -260 0 -260 88 0 c106 0 157 -13 194 -50 33 -33 37 -83 12 -131 -17 -34 -787 -1113 -813 -1142 -16 -17 -22 -11 -102 100 -47 65 -231 318 -409 563 -178 245 -329 459 -336 477 -23 55 -18 91 19 128 44 44 89 55 235 55 l122 0 0 260 0 260 -1335 0 -1335 0 0 -260z"/>
</g>
</svg>