<?xml version="1.0" encoding="UTF-8" standalone="no"?> <svg xmlns="http://www.w3.org/2000/svg" xmlns:xlink="http://www.w3.org/1999/xlink" width="129px" height="70px" viewBox="0 0 129 70" version="1.1"><!-- Generator: Sketch 50.2 (55047) - http://www.bohemiancoding.com/sketch --><title>00_basics/logo</title><desc>Created with Sketch.</desc><defs><polygon id="path-1" points="0.000444827586 0.463385937 128.337207 0.463385937 128.337207 24.4059172 0.000444827586 24.4059172"></polygon><polygon id="path-3" points="0.0574803761 0.79209375 28.162282 0.79209375 28.162282 33.0447312 0.0574803761 33.0447312"></polygon></defs><g id="Symbols" stroke="none" stroke-width="1" fill="none" fill-rule="evenodd"><g id="Navigation/Menu/Main-3" transform="translate(-573.000000, -37.000000)"><g id="Navigation/Menu/Main-1" transform="translate(52.000000, 36.000000)"><g id="Navigation/Menu/Main-2"><g id="00_Basic/logo" transform="translate(521.000000, 0.000000)"><g id="Group-3" stroke-width="1" fill-rule="evenodd" transform="translate(0.000000, 45.801767)"><mask id="mask-2" fill="white"><use xlink:href="#path-1"></use></mask><g id="Clip-2"></g><path d="M58.5030569,17.7629797 C58.5030569,15.1870109 57.0784966,13.4197766 54.7931948,11.7856672 C53.3675224,10.7617141 52.3032724,10.0650266 51.5226,9.41493281 C50.6651948,8.70937031 50.1781086,7.99493281 50.1781086,7.03976094 C50.1781086,5.48774531 51.5826517,4.47932344 53.6177379,4.47932344 C54.4562379,4.47932344 55.1590655,4.63796406 55.6494879,4.91863594 C56.1666,5.23258906 56.5980828,5.68077656 56.7548845,6.34640156 L57.2519793,6.34640156 C57.2853414,4.32844844 57.310919,2.90844844 57.4043328,1.20222969 C56.4524017,0.913792187 54.7698414,0.693026562 53.3875397,0.693026562 C48.0707379,0.693026562 45.089281,3.66726094 45.089281,7.25054219 C45.089281,9.65122969 46.3003241,11.4373234 48.6768155,13.0925109 C49.6598845,13.7958547 50.604031,14.4381828 51.4581,15.0605422 C52.6713672,15.9347297 53.3041345,16.7834016 53.3041345,17.8639328 C53.3041345,19.5745891 51.7683672,20.5397453 49.6899103,20.5397453 C48.5989707,20.5397453 47.5647466,20.3677922 46.8029793,19.9695266 C46.1980138,19.6134172 45.7153759,19.0531828 45.4840655,18.2466672 L44.9869707,18.2466672 C44.9302552,20.6063078 44.862419,21.9664016 44.7834621,23.4696047 C45.9311172,23.9421984 48.0184707,24.3193859 50.0124103,24.3193859 C55.2636,24.3193859 58.5030569,21.5148859 58.5030569,17.7929328 L58.5030569,17.7629797 Z M18.6476172,13.7781047 C18.6476172,16.8055891 19.0924448,18.6981828 20.3012638,20.3611359 C22.0116259,22.9437609 25.2110483,24.4059172 29.3479448,24.4059172 C33.187919,24.4059172 36.0881948,22.7629328 37.4471431,21.0112297 C38.91285,19.3371828 39.7079793,17.2548859 39.7079793,13.5839641 L39.7079793,10.1559953 C39.7079793,2.42476094 39.7202121,1.37529219 40.992419,1.27101094 L40.992419,0.823932812 C40.2617897,0.838354687 38.9239707,0.852776562 37.2725483,0.852776562 C35.8835741,0.852776562 34.4868155,0.838354687 33.3947638,0.823932812 L33.3947638,1.27101094 C34.9060655,1.37529219 34.8938328,2.42476094 34.8938328,10.1559953 L34.8938328,13.6538547 C34.8938328,15.9225266 34.5001603,17.3558391 33.5904879,18.4030891 C32.5885138,19.5646047 31.0382897,20.1669953 29.3568414,20.1669953 C27.4907897,20.1669953 25.8137897,19.5080266 24.8929966,18.3354172 C24.0378155,17.2781828 23.6519276,15.8781516 23.6519276,13.6993391 L23.6519276,10.1559953 C23.6519276,2.41366719 23.6574879,1.38305781 25.0742638,1.27877656 L25.0742638,0.823932812 C24.094531,0.838354687 22.7189017,0.852776562 21.190919,0.852776562 C19.5217034,0.852776562 18.1560828,0.838354687 17.2819966,0.823932812 L17.2819966,1.27877656 C18.65985,1.38305781 18.6476172,2.41366719 18.6476172,10.1559953 L18.6476172,13.7781047 Z M1.4561431,14.1375422 C1.4561431,22.4312297 1.48060862,23.3852922 0.0493758621,23.5383859 L0.0493758621,24.0376047 C0.916789655,24.0242922 4.12066034,24.0076516 7.76824655,24.0076516 C10.3148845,24.0076516 13.160669,24.0242922 15.0889966,24.0376047 C15.11235,22.3968391 15.1457121,21.1188391 15.2179966,18.9688703 L14.708669,18.9688703 C14.5985741,19.4192766 14.2282552,19.7875891 13.8468155,19.9595422 C13.37085,20.2113703 12.8181517,20.3145422 11.9329448,20.3145422 L6.96422069,20.3145422 C6.47379828,20.3145422 6.3548069,20.1891828 6.3548069,19.7709484 L6.3548069,10.1559953 C6.3548069,2.41366719 6.37816034,1.49066719 7.75823793,1.30429219 L7.75823793,0.823932812 C7.01203966,0.838354687 5.51074655,0.852776562 3.94495345,0.852776562 C2.32466897,0.852776562 0.718841379,0.838354687 0.000444827586,0.823932812 L0.000444827586,1.30429219 C1.4561431,1.48068281 1.4561431,2.42476094 1.4561431,10.1559953 L1.4561431,14.1375422 Z M105.993962,13.7781047 C105.993962,16.8055891 106.437678,18.6981828 107.646497,20.3611359 C109.356859,22.9437609 112.556281,24.4059172 116.693178,24.4059172 C120.533152,24.4059172 123.433428,22.7629328 124.792376,21.0112297 C126.259195,19.3371828 127.053212,17.2548859 127.053212,13.5839641 L127.053212,10.1559953 C127.053212,2.42476094 127.065445,1.37529219 128.337652,1.27101094 L128.337652,0.823932812 C127.607022,0.838354687 126.269203,0.852776562 124.617781,0.852776562 C123.229919,0.852776562 121.832048,0.838354687 120.739997,0.823932812 L120.739997,1.27101094 C122.251298,1.37529219 122.239066,2.42476094 122.239066,10.1559953 L122.239066,13.6538547 C122.239066,15.9225266 121.845393,17.3558391 120.935721,18.4030891 C119.933747,19.5646047 118.383522,20.1669953 116.702074,20.1669953 C114.837134,20.1669953 113.159022,19.5080266 112.238229,18.3354172 C111.383048,17.2781828 110.998272,15.8781516 110.998272,13.6993391 L110.998272,10.1559953 C110.998272,2.41366719 111.002721,1.38305781 112.419497,1.27877656 L112.419497,0.823932812 C111.439764,0.838354687 110.064134,0.852776562 108.536152,0.852776562 C106.866936,0.852776562 105.501316,0.838354687 104.628341,0.823932812 L104.628341,1.27877656 C106.005083,1.38305781 105.993962,2.41366719 105.993962,10.1559953 L105.993962,13.7781047 Z M89.1828155,15.8714953 C91.1200397,11.2287609 91.6271431,10.0672453 91.8439966,9.34837031 C92.0997724,10.0783391 92.5557207,11.2354172 94.4106517,15.7838547 L89.1828155,15.8714953 Z M95.8040741,19.3271984 C97.15635,22.4534172 97.5967293,23.4718234 96.3222983,23.5716672 L96.3222983,24.0376047 C97.6578931,24.0242922 99.1380569,24.0076516 100.567066,24.0076516 C102.269643,24.0076516 103.401729,24.0242922 104.156824,24.0376047 L104.156824,23.5716672 C103.155962,23.4696047 102.629953,22.4478703 98.7877552,14.1153547 L92.5167983,0.463385937 L91.7094362,0.463385937 L85.3117034,14.1075891 C81.369419,22.4733859 80.8322897,23.4762609 79.8102983,23.5716672 L79.8102983,24.0376047 C80.5264707,24.0242922 81.6863586,24.0076516 83.4033931,24.0076516 C84.7278672,24.0076516 86.0723586,24.0242922 87.2578241,24.0376047 L87.2578241,23.5716672 C85.9544793,23.4718234 86.3670569,22.4589641 87.7749362,19.3271984 L95.8040741,19.3271984 Z M69.1878155,14.1375422 C69.1878155,22.4445422 69.1878155,23.4318859 67.6854103,23.5783234 L67.6854103,24.0376047 C68.5939707,24.0242922 70.1297379,24.0076516 71.6866345,24.0076516 C73.1701345,24.0076516 74.5991431,24.0242922 75.6700655,24.0376047 L75.6700655,23.5827609 C74.1087207,23.5539172 74.0976,22.4556359 74.0976,14.1375422 L74.0976,4.43383906 L78.5225224,4.43383906 C80.1294621,4.43383906 80.8767724,4.78551094 81.1937121,5.97808906 L81.6997034,5.97808906 L81.7119362,0.827260937 C79.2976345,0.842792187 76.2594621,0.852776562 73.4537121,0.852776562 L69.7983414,0.852776562 C67.2750569,0.852776562 64.2302121,0.842792187 61.5445655,0.827260937 L61.5567983,5.97808906 L62.0750224,5.97808906 C62.3697207,4.83543281 63.1292638,4.43383906 64.7628931,4.43383906 L69.1878155,4.43383906 L69.1878155,14.1375422 Z" id="Fill-1" fill="#1D1D1B" mask="url(#mask-2)"></path></g><path d="M49.064594,39.4846531 L49.8096802,39.4846531 C50.468025,39.4846531 50.4791457,39.8130281 50.500275,40.0537625 L50.6871026,40.0537625 L50.6871026,38.6637156 L50.500275,38.6637156 C50.4791457,38.8944656 50.4457836,39.232825 49.8096802,39.232825 L49.064594,39.232825 L49.064594,37.4389656 L50.0621198,37.4389656 C50.4346629,37.4389656 50.8850509,37.4389656 51.0051543,38.0413563 L51.2019905,38.0413563 L51.1363784,37.2537 L47.6278009,37.2537 L47.6278009,37.4389656 C48.1326802,37.4833406 48.3183957,37.5487938 48.3183957,38.150075 L48.3183957,40.5241375 C48.3183957,41.1464969 48.1326802,41.2019656 47.6278009,41.2452313 L47.6278009,41.4316063 L51.2019905,41.4316063 L51.3999388,40.6217625 L51.2019905,40.6217625 C50.9506629,41.2141688 50.5447578,41.2452313 50.2378267,41.2452313 L49.5906026,41.2452313 C49.1524474,41.2452313 49.064594,41.2452313 49.064594,40.5452156 L49.064594,39.4846531" id="Fill-4" fill="#AE9A64" fill-rule="evenodd"></path><path d="M54.2378276,37.2095469 L54.0621207,37.2095469 C54.01875,37.2428281 53.9420172,37.3082813 53.8208017,37.3082813 C53.7551897,37.3082813 53.744069,37.3082813 53.4048879,37.2095469 C53.2725517,37.1662813 53.1413276,37.1551875 52.9878621,37.1551875 C52.1982931,37.1551875 51.7712586,37.7021094 51.7712586,38.260125 C51.7712586,38.8713906 52.2639052,39.1997656 52.7142931,39.4626875 C53.5138707,39.9219688 53.8430431,40.1183281 53.8430431,40.5997969 C53.8430431,41.0590781 53.4371379,41.3330938 53.0423534,41.3330938 C52.3517586,41.3330938 52.0337069,40.7417969 51.9136034,40.0861563 L51.7267759,40.0861563 L51.7267759,41.4307188 L51.9136034,41.4307188 C51.9358448,41.3763594 51.9680948,41.277625 52.1104397,41.277625 C52.1760517,41.277625 52.2427759,41.2998125 52.2861466,41.322 C52.7142931,41.5294531 52.8788793,41.5294531 53.0645948,41.5294531 C53.9420172,41.5294531 54.4357759,40.8849063 54.4357759,40.3268906 C54.4357759,39.8565156 54.1722155,39.3972344 53.4048879,38.9490469 C52.4840948,38.4121094 52.2972672,38.3033906 52.2972672,37.9417344 C52.2972672,37.6577344 52.5497069,37.3304688 53.0312328,37.3304688 C53.6450948,37.3304688 53.9853879,37.745375 54.0621207,38.4121094 L54.2378276,38.4121094 L54.2378276,37.2095469" id="Fill-6" fill="#AE9A64" fill-rule="evenodd"></path><path d="M57.0971793,37.5280484 L57.7555241,37.5280484 C58.479481,37.5280484 58.5450931,38.0971578 58.5773431,38.3367828 L58.7574983,38.3367828 L58.7241362,37.0454703 L58.5339724,37.0454703 C58.3693862,37.1774859 58.2592914,37.2540328 57.8867483,37.2540328 L55.5291621,37.2540328 C55.1555069,37.2540328 55.0465241,37.1774859 54.8819379,37.0454703 L54.6917741,37.0454703 L54.6584121,38.3367828 L54.8385672,38.3367828 C54.8708172,38.0971578 54.9364293,37.5280484 55.6603862,37.5280484 L56.318731,37.5280484 L56.318731,40.5244703 C56.318731,41.1579234 56.0774121,41.2022984 55.6281362,41.2466734 L55.6281362,41.4319391 L57.7766534,41.4319391 L57.7766534,41.2466734 C57.3384983,41.2022984 57.0971793,41.1579234 57.0971793,40.5244703 L57.0971793,37.5280484" id="Fill-8" fill="#AE9A64" fill-rule="evenodd"></path><path d="M58.8598086,40.6665813 C58.575119,40.6665813 58.3338,40.8962219 58.3338,41.1913156 C58.3338,41.4753156 58.575119,41.7060656 58.8598086,41.7060656 C59.1444983,41.7060656 59.3746966,41.4753156 59.3746966,41.1913156 C59.3746966,40.8962219 59.1444983,40.6665813 58.8598086,40.6665813" id="Fill-10" fill="#AE9A64" fill-rule="evenodd"></path><path d="M65.0728267,38.6428594 C65.0728267,38.0193906 65.0728267,37.8995781 65.6978095,37.8662969 L65.6978095,37.6799219 L63.7461284,37.6799219 L63.7461284,37.8662969 C64.3599905,37.8884844 64.3599905,38.0515625 64.3599905,38.6428594 L64.3599905,40.4688906 C64.3599905,41.082375 64.3388612,41.2343594 63.7461284,41.2454531 L63.7461284,41.4318281 L65.6978095,41.4318281 L65.6978095,41.2454531 C65.0728267,41.2454531 65.0728267,41.1034531 65.0728267,40.4478125 L65.0728267,38.6428594" id="Fill-12" fill="#AE9A64" fill-rule="evenodd"></path><path d="M68.005575,37.2431609 C68.005575,38.0186141 68.6194371,38.5011922 68.893006,38.7075359 C67.9722129,39.2655516 67.7976181,39.7680984 67.7976181,40.1963172 C67.7976181,40.8730359 68.3347474,41.5186922 69.3100319,41.5186922 C70.5711181,41.5186922 70.9659026,40.5457703 70.9659026,39.9977391 C70.9659026,39.2544578 70.3742819,38.8073797 69.923894,38.4568172 C70.6256095,38.0075203 70.8446871,37.6469734 70.8446871,37.1666141 C70.8446871,36.4000359 70.1763336,35.9196766 69.4523767,35.9196766 C68.5427043,35.9196766 68.005575,36.6085984 68.005575,37.2431609 M68.4993336,36.9025828 C68.4993336,36.5653328 68.7729026,36.1593016 69.2989112,36.1593016 C69.891644,36.1593016 70.3297991,36.6418797 70.3297991,37.3185984 C70.3297991,37.8999109 69.9783853,38.1395359 69.7270578,38.3037234 C69.2777819,38.0518953 68.4993336,37.5482391 68.4993336,36.9025828 M70.4065319,40.4259578 C70.4065319,41.0494266 69.8582819,41.2790672 69.4857388,41.2790672 C68.7840233,41.2790672 68.3558767,40.6223172 68.3558767,40.0532078 C68.3558767,39.9544734 68.3558767,39.2777547 69.102075,38.8617391 C69.9016526,39.4086609 70.4065319,39.7913953 70.4065319,40.4259578" id="Fill-14" fill="#AE9A64" fill-rule="evenodd"></path><path d="M71.9912302,43.2254656 C74.1397474,43.3341844 75.8289802,41.4859656 75.8289802,39.8130281 C75.8289802,38.7735438 75.148394,37.7018875 73.9095491,37.7018875 C72.8352905,37.7018875 72.2214284,38.4895438 72.2214284,39.2550125 C72.2214284,40.1635906 72.9776353,40.6561531 73.7127129,40.6561531 C74.2387216,40.6561531 74.6768767,40.3821375 75.0282905,39.9661219 C75.0171698,40.35995 74.7980922,41.6834344 73.8884198,42.3945438 C73.3179284,42.8427313 72.649575,43.0069188 71.9912302,43.0501844 L71.9912302,43.2254656 Z M72.9676267,38.9943094 C72.9676267,37.9969813 73.6904716,37.9326375 73.8005664,37.9326375 C73.9317905,37.9326375 74.9081871,37.9326375 75.0282905,39.5833875 C74.9081871,39.747575 74.5245233,40.2723094 73.9429112,40.2723094 C73.4380319,40.2723094 72.9676267,39.8252313 72.9676267,38.9943094 Z" id="Fill-16" fill="#AE9A64" fill-rule="evenodd"></path><path d="M80.2627991,35.9528469 C79.2986353,35.920675 76.842075,36.8714094 76.842075,39.4307375 C76.842075,40.6000188 77.6538853,41.529675 78.760394,41.529675 C79.7145491,41.529675 80.5041181,40.8740344 80.5041181,39.9543625 C80.5041181,39.3098156 80.0326009,38.4689094 79.0461957,38.4689094 C78.6069284,38.4689094 78.1254026,38.5998156 77.6538853,39.1900031 C77.6094026,37.9208781 78.3333595,36.3244875 80.2627991,36.1281281 L80.2627991,35.9528469 Z M77.6538853,39.5183781 C77.8507216,39.2887375 78.1465319,38.9170969 78.6625319,38.9170969 C79.0573164,38.9170969 79.7367905,39.2343781 79.7367905,40.1840031 C79.7367905,40.9073156 79.308644,41.3122375 78.8704888,41.3122375 C78.3878509,41.3122375 77.6427647,40.86405 77.6538853,39.5183781 Z" id="Fill-18" fill="#AE9A64" fill-rule="evenodd"></path><g id="Group-22" stroke-width="1" fill-rule="evenodd" transform="translate(50.043103, 0.317392)"><mask id="mask-4" fill="white"><use xlink:href="#path-3"></use></mask><g id="Clip-21"></g><path d="M17.7675259,10.8727625 L10.4879224,10.8738719 L10.4834741,21.4573094 L14.1255,23.3166219 L17.7675259,21.4362312 L17.7675259,10.8727625 Z M24.591181,25.9769031 L18.4058534,22.1883875 L14.73825,24.2407312 L14.73825,30.890325 C14.73825,30.890325 17.1136293,29.1275281 19.7025259,28.5562 C23.2122155,27.7796375 24.591181,25.9769031 24.591181,25.9769031 Z M18.8273276,17.861825 L18.8262155,21.2920125 L24.9559397,24.98845 C24.9559397,24.98845 25.5631293,23.9811375 25.3440517,20.9780594 L25.3440517,16.0457781 L19.5312672,16.0413406 L18.8406724,16.0712937 L18.8273276,17.861825 Z M19.4567586,15.0861687 L25.3485,15.0850594 L25.3440517,5.29260625 L18.8273276,10.8727625 L18.8228793,13.5951687 L18.8406724,15.092825 L19.4567586,15.0861687 Z M3.68206034,25.9769031 C3.68206034,25.9769031 5.06102586,27.7796375 8.57071552,28.5562 C11.1585,29.1275281 13.5349914,30.890325 13.5349914,30.890325 L13.5349914,24.2407312 L9.86627586,22.1883875 L3.68206034,25.9769031 Z M9.44480172,17.861825 L9.43812931,16.0712937 L8.74086207,16.0413406 L2.92918966,16.0457781 L2.92918966,20.9780594 C2.71011207,23.9811375 3.31618966,24.98845 3.31618966,24.98845 L9.44591379,21.2920125 L9.44480172,17.861825 Z M9.43812931,15.092825 L9.44035345,13.5973875 L9.44035345,10.8727625 L2.92362931,5.29260625 L2.91806897,15.0850594 L8.74086207,15.0817312 L9.43812931,15.092825 Z M3.63868966,4.496075 L9.96080172,9.88874687 L13.5349914,9.88874687 L13.5349914,2.42487187 C13.5349914,2.42487187 11.1596121,3.67402812 8.68859483,4.18323125 C6.33768103,4.66802812 3.63868966,4.496075 3.63868966,4.496075 Z M24.6289914,4.43727812 C24.6289914,4.43727812 21.93,4.60923125 19.5790862,4.12554375 C17.108069,3.61634062 14.7326897,2.36718437 14.7326897,2.36718437 L14.7326897,9.83105937 L18.3068793,9.83105937 L24.6289914,4.43727812 Z M14.141069,33.0447313 C14.141069,33.0447313 13.0745948,31.298575 10.5835603,30.2002937 C7.97131034,29.0498719 4.39934483,28.7680906 2.91806897,26.843325 C1.66810345,25.2180906 1.77152586,23.0259656 1.77152586,23.0259656 L1.77152586,6.44191875 C1.77152586,6.44191875 1.77486207,5.28262187 0.0589396552,4.29749687 C-0.0033362069,4.26199687 1.94834483,2.41377812 1.94834483,2.41377812 C1.94834483,2.41377812 3.96786207,3.84043437 7.63212931,3.35230937 C10.8126466,2.92852812 14.1210517,0.791871875 14.1210517,0.791871875 C14.1210517,0.791871875 17.4350172,2.92852812 20.6166466,3.35230937 C24.2809138,3.84043437 26.1992328,2.19634062 26.1992328,2.19634062 C26.1992328,2.19634062 28.2220862,4.11445 28.1609224,4.15327812 C26.5606552,5.14949687 26.4761379,6.44191875 26.4761379,6.44191875 L26.4761379,23.0259656 C26.4761379,23.0259656 26.5806724,25.2180906 25.3295948,26.843325 C23.849431,28.7680906 20.2763534,29.0498719 17.6652155,30.2002937 C15.173069,31.298575 14.141069,33.0447313 14.141069,33.0447313 Z" id="Fill-20" fill="#AE9A64" mask="url(#mask-4)"></path></g><path d="M72.7139638,10.2269953 L72.1590414,10.2269953 L72.0845328,10.7206672 L71.5540759,10.7239953 L71.4684466,10.2170109 L70.8657052,10.2170109 L70.8668172,10.9303391 C70.8668172,10.9303391 71.4028345,11.0146516 71.5018086,11.2465109 C71.5918862,11.4572922 71.4929121,11.6192609 71.4462052,11.8511203 C71.33055,12.4191203 70.7811879,13.1890266 70.7811879,13.1890266 L70.7811879,14.4270891 L71.7498,14.4270891 L71.7486879,13.5761984 C71.7486879,13.2799953 72.0778603,12.9882297 72.474869,13.0248391 C72.8729897,13.0625578 73.0687138,13.2799953 73.0687138,13.5761984 L73.0709379,14.4270891 L74.03955,14.4270891 L74.0473345,13.1890266 C74.0473345,13.1890266 73.4979724,12.4224484 73.3834293,11.8566672 C73.3367224,11.6248078 73.2377483,11.4628391 73.3267138,11.2520578 C73.4268,11.0201984 73.9628172,10.9369953 73.9628172,10.9369953 L73.9628172,10.2214484 L73.3600759,10.2214484 L73.2755586,10.7306516 L72.8029293,10.7317609 L72.7139638,10.2269953 Z M72.1823948,12.1883703 L72.701731,12.1883703 L72.701731,11.3463547 L72.1823948,11.3463547 L72.1823948,12.1883703 Z" id="Fill-23" fill="#AE9A64" fill-rule="evenodd"></path><path d="M56.547706,17.4856359 L55.9927836,17.4856359 L55.918275,17.9793078 L55.3878181,17.9837453 L55.3033009,17.4756516 L54.7005595,17.4756516 L54.7005595,18.1889797 C54.7005595,18.1889797 55.2365767,18.2732922 55.3355509,18.5062609 C55.4256284,18.7159328 55.3266543,18.8779016 55.2799474,19.1097609 C55.1642922,19.6788703 54.6149302,20.4476672 54.6149302,20.4476672 L54.6149302,21.6868391 L55.5835422,21.6868391 L55.5824302,20.8348391 C55.5824302,20.5386359 55.9116026,20.2479797 56.3086112,20.2834797 C56.7067319,20.3211984 56.902456,20.5386359 56.902456,20.8348391 L56.9046802,21.6868391 L57.8744043,21.6868391 L57.8821888,20.4476672 C57.8821888,20.4476672 57.3328267,19.6810891 57.2171716,19.1164172 C57.1704647,18.8834484 57.0714905,18.7214797 57.160456,18.5118078 C57.2605422,18.2788391 57.7965595,18.1956359 57.7965595,18.1956359 L57.7965595,17.4811984 L57.1938181,17.4811984 L57.1093009,17.9892922 L56.6366716,17.9904016 L56.547706,17.4856359 Z M56.0161371,19.4470109 L56.5365853,19.4470109 L56.5365853,18.6049953 L56.0161371,18.6049953 L56.0161371,19.4470109 Z" id="Fill-25" fill="#AE9A64" fill-rule="evenodd"></path><path d="M72.6504647,17.7174953 C72.4280509,17.8617141 72.688275,18.0103703 72.7005078,18.3254328 C72.6927233,18.5683859 72.6048698,18.6881984 72.5448181,18.9544484 C72.4992233,19.1940734 72.510344,19.4026359 72.5581629,19.4780734 C72.7839129,19.8419484 73.543456,19.6400422 73.6446543,20.1669953 C73.7958957,20.1914016 74.0805853,20.1858547 74.139525,19.9617609 C74.2106974,19.6234016 74.0383267,19.5457453 73.8414905,19.3649172 C73.6268612,19.2062766 73.2576543,19.0343234 73.2354129,18.6593547 C73.2676629,18.2688547 73.8426026,18.1934172 74.0739129,18.3509484 C74.1828957,18.4075266 74.3630509,18.5916828 74.2485078,18.7325734 C74.1284043,18.7647453 74.0683526,18.7658547 73.9048784,18.8035734 C73.7580853,18.7236984 73.6279733,18.3576047 73.4834043,18.6926359 C73.4767319,18.8989797 73.7102664,18.9744172 73.8592836,19.1108703 C74.1195078,19.3005734 74.4364474,19.5457453 74.3730595,19.9562141 C74.3074474,20.1425891 74.2162578,20.3156516 74.0305422,20.3755578 C73.865956,20.4121672 73.7536371,20.3744484 73.6746802,20.4099484 C73.607956,20.5264328 73.5734819,21.1820734 73.6546629,21.2985578 C73.833706,21.5470578 74.3196802,21.2974484 74.1528698,21.7589484 C73.978275,21.9386672 73.9682664,22.1483391 73.946025,22.4223547 C73.720275,22.4323391 73.3877664,22.4323391 73.1842578,22.4312297 C73.1197578,22.3169641 73.1631284,22.2004797 73.2176198,22.0906516 C73.3221543,21.9408859 73.7347319,22.3147453 73.7347319,21.7900109 C73.7347319,21.7900109 73.559025,21.5082297 73.3432836,21.6213859 C73.2443095,21.6724172 73.1464474,21.2453078 73.1375509,20.9990266 C73.1453353,20.8137609 73.1809216,20.5907766 73.0285681,20.5852297 C72.672706,20.5896672 72.6004216,20.8625734 72.4981112,21.1033078 C72.4981112,21.1033078 72.6371198,21.1632141 72.6571371,21.2475266 C72.6871629,21.3695578 72.5603871,21.6036359 72.4324991,21.8798703 C72.0933181,21.8709953 71.9609819,21.8865266 71.7018698,21.8709953 C71.6896371,21.7400891 71.688525,21.6091828 71.7919474,21.5381828 C71.9520853,21.5326359 72.1800595,21.5648078 72.1800595,21.5648078 C72.2478957,21.5481672 72.1011026,21.1765266 72.0788612,20.9335734 C72.1155595,20.6229484 72.3135078,20.5741359 72.3524302,20.3888703 C72.2167578,20.2557453 71.5472922,19.8452766 71.5472922,19.8452766 C71.5506284,19.7343391 71.4160681,20.2069328 71.350456,20.1292766 C71.0146112,20.0227766 70.5030595,20.2091516 70.3451457,20.3666828 C70.2739733,20.4942609 70.5286371,20.5663703 70.1227319,20.5996516 C69.9826112,20.5918859 69.979275,20.4154953 69.9870595,20.2235734 C70.1961284,19.8652453 71.4071716,19.8419484 71.1591802,19.5146828 C71.0946802,19.3149953 70.6909991,19.0831359 70.3974129,19.0032609 C70.3028871,19.0121359 70.4563526,19.2273547 70.1494216,19.0664953 C69.962594,19.0298859 70.0048526,18.9089641 70.1449733,18.5883547 C70.3128957,18.4918391 70.5964733,18.7370109 70.9823612,18.9322609 C71.3226543,19.0920109 71.4116198,19.1408234 71.4761198,19.0676047 L71.576206,18.8324172 C71.6473784,18.6526984 71.7141026,18.4530109 71.7152147,18.3897766 C71.6651716,18.3886672 71.0468612,18.5828078 71.2359129,18.2400109 C71.2292405,18.2178234 71.6340336,18.2289172 71.7352319,18.1911984 C71.8386543,18.1512609 71.704094,17.9460266 71.7129905,17.9205109 C71.7218871,17.8894484 71.2470336,18.0336672 71.2570422,18.0014953 C71.1814216,17.9238391 71.2559302,17.8550578 71.2503698,17.7563234 C71.6295853,17.5277922 72.2890422,17.3857922 72.6504647,17.7174953" id="Fill-27" fill="#AE9A64" fill-rule="evenodd"></path><path d="M60.5458164,24.2686875 C60.314506,24.4184531 60.5847388,24.5715469 60.5980836,24.8999219 C60.5891871,25.1528594 60.4979974,25.2782187 60.4368336,25.5544531 C60.3890147,25.8029531 60.4001353,26.0192812 60.4501784,26.0991562 C60.684825,26.4774531 61.4732819,26.2666719 61.5789284,26.8147031 C61.7368422,26.8402187 62.0326526,26.8324531 62.0927043,26.6017031 C62.168325,26.2500312 61.9881698,26.1690469 61.7835491,25.9804531 C61.5611353,25.8162656 61.1763595,25.6365469 61.153006,25.2471562 C61.1874802,24.841125 61.7846612,24.7623594 62.0259802,24.9276562 C62.1394112,24.9853437 62.3262388,25.1772656 62.2072474,25.3225937 C62.0826957,25.3569844 62.0193078,25.3580937 61.8502733,25.3980312 C61.6979198,25.3137187 61.5611353,24.9343125 61.4121181,25.2815469 C61.4043336,25.4967656 61.6478767,25.5744219 61.8024543,25.7164219 C62.0726871,25.9127812 62.4018595,26.1690469 62.3362474,26.5939375 C62.2684112,26.7880781 62.1738853,26.9689062 61.9803853,27.0299219 C61.8091267,27.0676406 61.6934716,27.0288125 61.6100664,27.0654219 C61.5411181,27.1885625 61.5055319,27.8697187 61.5900491,27.9895312 C61.7757647,28.249125 62.280644,27.9884219 62.1071612,28.4676719 C61.925894,28.6551562 61.9147733,28.8737031 61.8925319,29.1599219 C61.6578853,29.1687969 61.313144,29.1687969 61.0996267,29.1676875 C61.0340147,29.0489844 61.0784974,28.9280625 61.1352129,28.8137969 C61.2441957,28.657375 61.6734543,29.0456562 61.6723422,28.5020625 C61.6723422,28.5020625 61.4899629,28.2091875 61.2664371,28.3256719 C61.1630147,28.3789219 61.0607043,27.9340625 61.0518078,27.6800156 C61.0595922,27.4869844 61.0962905,27.2562344 60.9383767,27.2495781 C60.5691698,27.2540156 60.4946612,27.5369062 60.3879026,27.7887344 C60.3879026,27.7887344 60.5313595,27.8508594 60.5524888,27.9362812 C60.5836267,28.0649687 60.4512905,28.3079219 60.3200664,28.5941406 C59.9664284,28.586375 59.8285319,28.6019062 59.5594112,28.586375 C59.5471784,28.4499219 59.5460664,28.3134687 59.6539371,28.24025 C59.8196353,28.2347031 60.056506,28.266875 60.056506,28.266875 C60.1276784,28.2502344 59.9742129,27.8630625 59.9519716,27.6112344 C59.9897819,27.2884062 60.1955147,27.237375 60.2366612,27.0454531 C60.0954284,26.9067812 59.3992733,26.4807812 59.3992733,26.4807812 C59.4026095,26.3642969 59.2613767,26.85575 59.1935405,26.775875 C58.8454629,26.6649375 58.313894,26.8590781 58.1504198,27.0210469 C58.0759112,27.1541719 58.3405836,27.2307187 57.9179974,27.264 C57.7734284,27.2562344 57.7689802,27.0709687 57.7767647,26.8735 C57.9947302,26.4996406 59.2535922,26.4774531 58.9955922,26.136875 C58.927756,25.9294219 58.508506,25.6886875 58.2037991,25.6054844 C58.104825,25.61325 58.2649629,25.8384531 57.9457991,25.6709375 C57.7522991,25.6321094 57.7956698,25.50675 57.9413509,25.1739375 C58.1159457,25.0740937 58.410644,25.3281406 58.8121009,25.5300469 C59.1657388,25.6975625 59.2580405,25.7474844 59.3247647,25.6720469 L59.4292991,25.4279844 C59.5026957,25.2405 59.571644,25.0330469 59.5738681,24.9675937 C59.5216009,24.965375 58.878825,25.1672812 59.0756612,24.8100625 C59.0689888,24.787875 59.4882388,24.8000781 59.5949974,24.7590312 C59.701756,24.7179844 59.5616353,24.5060937 59.5705319,24.4783594 C59.5805405,24.4461875 59.0867819,24.5970625 59.0979026,24.5637812 C59.0189457,24.4827969 59.0956784,24.4117969 59.0901181,24.308625 C59.4849026,24.0712187 60.1699371,23.9236719 60.5458164,24.2686875" id="Fill-29" fill="#AE9A64" fill-rule="evenodd"></path><path d="M68.644681,24.3780719 L68.0530603,24.3791812 L67.9741034,24.905025 L67.4091724,24.9094625 L67.3190948,24.3669781 L66.677431,24.3669781 L66.677431,25.1280094 C66.677431,25.1280094 67.2490345,25.2178687 67.354681,25.46415 C67.450319,25.6882437 67.3446724,25.8601969 67.2946293,26.1086969 C67.1723017,26.7121969 66.5873534,27.532025 66.5873534,27.532025 L66.5873534,28.8499625 L67.6182414,28.8499625 L67.6171293,27.9424937 C67.6171293,27.62965 67.967431,27.3179156 68.3900172,27.3578531 C68.8137155,27.3966812 69.0227845,27.62965 69.0227845,27.9424937 L69.0250086,28.4150875 L70.0570086,27.9369469 L70.0647931,27.532025 C70.0647931,27.532025 69.4798448,26.7144156 69.3575172,26.1131344 C69.3074741,25.8668531 69.2018276,25.6949 69.2974655,25.4696969 C69.4031121,25.224525 69.9747155,25.1346656 69.9747155,25.1346656 L69.9747155,24.3736344 L69.3330517,24.3736344 L69.2429741,24.9139 L68.7392069,24.9161187 L68.644681,24.3780719 Z M68.0786379,26.4659156 L68.6324483,26.4659156 L68.6324483,25.57065 L68.0786379,25.57065 L68.0786379,26.4659156 Z" id="Fill-31" fill="#AE9A64" fill-rule="evenodd"></path><path d="M60.4280483,5.13840313 L59.8720138,5.13840313 L59.7986172,5.632075 L59.2681603,5.6365125 L59.1836431,5.12841875 L58.5797897,5.12841875 L58.5809017,5.84285625 C58.5809017,5.84285625 59.116919,5.92605938 59.2158931,6.15902813 C59.3059707,6.3687 59.2069966,6.53066875 59.1602897,6.76252813 C59.0446345,7.3316375 58.5341948,8.04274688 58.5341948,8.04274688 L59.4638845,8.9202625 L59.4627724,8.48760625 C59.4627724,8.19140313 59.7919448,7.90074688 60.1889534,7.93624688 C60.5870741,7.97285625 60.7827983,8.19140313 60.7827983,8.48760625 L60.7850224,9.33960625 L61.7536345,9.33960625 L61.761419,8.10043438 C61.761419,8.10043438 61.213169,7.33385625 61.0975138,6.768075 C61.0508069,6.53621563 60.9518328,6.37424688 61.0407983,6.164575 C61.1408845,5.93160625 61.6769017,5.84729375 61.6769017,5.84729375 L61.6769017,5.13396563 L61.0741603,5.13396563 L60.9896431,5.64205938 L60.5170138,5.64316875 L60.4280483,5.13840313 Z M59.8964793,7.09977813 L60.4158155,7.09977813 L60.4158155,6.2577625 L59.8964793,6.2577625 L59.8964793,7.09977813 Z" id="Fill-33" fill="#AE9A64" fill-rule="evenodd"></path><path d="M56.3695526,9.91936562 C56.1538112,10.0591469 56.4062509,10.2022562 56.4173716,10.5073344 C56.4106991,10.7436312 56.3250698,10.861225 56.2672422,11.1186 C56.2227595,11.3526781 56.2327681,11.5545844 56.2805871,11.6289125 C56.4985526,11.9805844 57.2358543,11.7853344 57.3348284,12.2967562 C57.4816216,12.3211625 57.7585267,12.3122875 57.8141302,12.0981781 C57.8841905,11.7698031 57.7162681,11.6943656 57.5249922,11.5168656 C57.3170353,11.3648812 56.9578371,11.1951469 56.9367078,10.8312719 C56.9678457,10.452975 57.5261043,10.3808656 57.7518543,10.5350687 C57.8575009,10.5894281 58.0320957,10.7680375 57.9208888,10.9044906 C57.8041216,10.9355531 57.746294,10.9366625 57.5872681,10.9732719 C57.4449233,10.8956156 57.3181474,10.5406156 57.1780267,10.8656625 C57.1713543,11.06535 57.3982164,11.1396781 57.5427853,11.2716937 C57.795225,11.4547406 58.1032681,11.6943656 58.0409922,12.0893031 C57.9776043,12.2712406 57.8897509,12.4398656 57.7095957,12.4964437 C57.5483457,12.5319437 57.440475,12.4953344 57.3637422,12.5308344 C57.2992422,12.6462094 57.2658802,13.2807719 57.3448371,13.3939281 C57.5172078,13.6368812 57.9898371,13.3928187 57.827475,13.8398969 C57.6584405,14.0140687 57.6484319,14.2204125 57.6261905,14.4855531 C57.408225,14.4955375 57.085725,14.4955375 56.8866647,14.4944281 C56.8243888,14.3812719 56.8666474,14.2703344 56.9189147,14.162725 C57.021225,14.0162875 57.4226819,14.3801625 57.4226819,13.8720687 C57.4226819,13.8720687 57.2514233,13.5980531 57.0423543,13.7078812 C56.9456043,13.7578031 56.8510784,13.3417875 56.8421819,13.1032719 C56.8488543,12.9246625 56.8833284,12.7083344 56.7365353,12.7027875 C56.3906819,12.7083344 56.2361043,13.2608031 56.1371302,13.4948812 C56.1371302,13.4948812 56.311725,13.6069281 56.3306302,13.6868031 C56.360656,13.807725 56.1871733,14.1993344 56.0637336,14.4689125 C55.7334491,14.4600375 55.6044491,14.47335 55.3542336,14.4600375 C55.3408888,14.3335687 55.3408888,14.2048812 55.440975,14.1372094 C55.5966647,14.1316625 55.909156,14.1716 55.909156,14.1716 C55.9758802,14.1549594 55.7656991,13.4915531 55.7445698,13.2563656 C55.779044,12.9535062 56.0426043,12.6916937 56.0804147,12.511975 C55.9480784,12.3832875 55.2986302,11.9839125 55.2986302,11.9839125 C55.3019664,11.8763031 55.1707422,12.3355844 55.1073543,12.2590375 C54.7815181,12.156975 54.2855353,12.3378031 54.1320698,12.4886781 C54.0631216,12.6140375 54.3100009,12.6839281 53.9163284,12.7161 C53.780656,12.7094437 53.7773198,12.5352719 53.7839922,12.3500062 C53.9863888,12.0027719 55.1629578,11.9805844 54.9216388,11.6633031 C54.8593629,11.4680531 54.4668026,11.2439594 54.183225,11.1674125 C54.0909233,11.1751781 54.2388284,11.3837406 53.940794,11.2284281 C53.7606388,11.1907094 53.8017853,11.0753344 53.9374578,10.7647094 C54.0998198,10.6715219 54.3745009,10.9089281 54.7503802,11.0975219 C55.0806647,11.2528344 55.166294,11.2994281 55.2296819,11.2306469 L55.327544,11.0021156 C55.3953802,10.8268344 55.4598802,10.6326937 55.4621043,10.5727875 C55.4131733,10.5705687 54.812656,10.7591625 54.9961474,10.4252406 C54.9905871,10.4041625 55.3820353,10.4141469 55.4810095,10.3764281 C55.5810957,10.3398187 55.4509836,10.1401312 55.4587681,10.1146156 C55.4687767,10.0846625 55.0072681,10.2255531 55.0172767,10.1956 C54.9438802,10.1190531 55.0150526,10.0524906 55.0094922,9.955975 C55.3786991,9.73520937 56.0181388,9.59764687 56.3695526,9.91936562" id="Fill-35" fill="#AE9A64" fill-rule="evenodd"></path><path d="M67.4229621,19.4898328 C67.4229621,19.4898328 66.825781,19.0782547 66.0695741,19.2613016 C65.3222638,19.4121766 64.8496345,19.7239109 64.1134448,19.7239109 C63.4028328,19.7239109 62.7122379,19.3600359 62.0472207,19.2613016 C61.2999103,19.1492547 60.9051259,19.4676453 60.9051259,19.4676453 L60.9051259,18.7698484 C60.9051259,18.7698484 61.3065828,18.4436922 62.0538931,18.5535203 C62.7189103,18.6522547 63.4095052,19.0161297 64.1201172,19.0161297 C64.8563069,19.0161297 65.3289362,18.7055047 66.0762466,18.5535203 C66.8324534,18.3704734 67.4229621,18.7753953 67.4229621,18.7753953 L67.4229621,19.4898328" id="Fill-37" fill="#AE9A64" fill-rule="evenodd"></path><path d="M67.4229621,21.5439516 C67.4229621,21.5439516 66.825781,21.1334828 66.0695741,21.3165297 C65.3222638,21.4674047 64.8496345,21.7791391 64.1134448,21.7791391 C63.4028328,21.7791391 62.7122379,21.4152641 62.0472207,21.3165297 C61.2999103,21.2055922 60.9051259,21.5151078 60.9051259,21.5151078 L60.9051259,20.8261859 C60.9051259,20.8261859 61.3065828,20.4989203 62.0538931,20.6098578 C62.7189103,20.7085922 63.4095052,21.0724672 64.1201172,21.0724672 C64.8563069,21.0724672 65.3289362,20.7607328 66.0762466,20.6098578 C66.8324534,20.4268109 67.4229621,20.8328422 67.4229621,20.8328422 L67.4229621,21.5439516" id="Fill-39" fill="#AE9A64" fill-rule="evenodd"></path><path d="M67.4229621,13.1315609 C67.4229621,13.1315609 66.825781,12.7210922 66.0695741,12.9041391 C65.3222638,13.0550141 64.8496345,13.3667484 64.1134448,13.3667484 C63.4028328,13.3667484 62.7122379,13.0028734 62.0472207,12.9041391 C61.2999103,12.7932016 60.9051259,13.0949516 60.9051259,13.0949516 L60.9051259,12.4126859 C60.9051259,12.4126859 61.3065828,12.0865297 62.0538931,12.1974672 C62.7189103,12.2950922 63.4095052,12.6600766 64.1201172,12.6600766 C64.8563069,12.6600766 65.3289362,12.3472328 66.0762466,12.1974672 C66.8324534,12.0144203 67.4229621,12.4193422 67.4229621,12.4193422 L67.4229621,13.1315609" id="Fill-41" fill="#AE9A64" fill-rule="evenodd"></path><path d="M67.898594,6.88910781 C68.2488957,7.09656094 69.237525,6.57959219 69.5355595,6.97009219 C69.6856888,6.93015469 70.4063095,6.87135781 70.3217922,6.63838906 C70.1371888,6.38101406 69.6167405,6.49638906 69.3542922,6.52523281 C69.0951802,6.58070156 68.7181888,6.73490469 68.4435078,6.52301406 C68.1966284,6.26231094 68.543594,5.81079531 68.8149388,5.74423281 C68.9294819,5.70207656 69.156344,5.74534219 69.2430853,5.83409219 C69.3098095,5.94724844 69.3231543,5.99717031 69.2364129,6.13584219 C69.0784991,6.19020156 68.5080078,6.06262344 68.640344,6.36770156 C68.7782405,6.49971719 68.9928698,6.37990469 69.189706,6.35771719 C69.5021974,6.29115469 70.2750853,6.18687344 70.5141802,6.48085781 C70.5986974,6.64060781 70.6442922,6.81256094 70.4941629,6.93237344 C70.3540422,7.02777969 69.7168267,7.09434219 69.656775,7.15535781 C69.640094,7.27738906 69.8591716,7.82542031 69.979275,7.88754531 C70.2261543,8.04174844 70.0860336,8.02843594 69.8146888,8.27249844 C69.7323957,8.34460781 69.4855164,8.04285781 69.383206,7.84649844 C69.318706,7.69229531 69.2664388,7.49704531 69.1218698,7.55140469 C68.7926974,7.69562344 68.8305078,7.94523281 68.8282836,8.18152969 C68.8282836,8.18152969 68.979525,8.17709219 69.0306802,8.23699844 C69.1063009,8.32574844 69.2019388,8.66521719 69.076275,8.91371719 C68.7304216,8.91149844 68.5947491,8.92702969 68.3311888,8.91815469 C68.3156198,8.80167031 68.3133957,8.68407656 68.4179302,8.61973281 C68.5802922,8.61196719 68.8138267,8.63637344 68.8138267,8.63637344 C68.882775,8.62084219 68.4857664,8.39674844 68.3723353,8.20815469 C68.286706,7.93968594 68.4512922,7.82209219 68.4168181,7.65568594 C68.2388871,7.60021719 67.2269043,8.01956094 67.2269043,8.01956094 C67.1868698,7.92748281 67.1546198,7.72335781 67.0645422,7.68563906 C66.7776284,7.86646719 66.2360509,8.20260781 66.1493095,8.39231094 C66.1315164,8.52543594 66.3961888,8.48549844 66.0314302,8.66965469 C65.8979819,8.71957656 65.8256974,8.57535781 65.7589733,8.41671719 C65.8156888,8.04174844 66.9366543,7.54918594 66.5785681,7.37945156 C66.4417836,7.24188906 66.0781371,6.88023281 65.8090164,6.73823281 C65.7133784,6.72159219 65.8123526,6.94568594 65.5487922,6.73046719 C65.3753095,6.65170156 65.4464819,6.55851406 65.6622233,6.31777969 C65.8501629,6.27562344 66.0703526,6.55740469 66.4028612,6.82143594 C66.6986716,7.04552969 66.6697578,6.97563906 66.7020078,6.89132656 C66.7264733,6.83585781 66.8654819,6.66834219 66.8921716,6.58402969 C66.9455509,6.41762344 66.9933698,6.23235781 66.9900336,6.17688906 C66.9377664,6.18021719 66.3305767,6.41540469 66.4884905,6.09035781 C66.479594,6.07260781 66.8910595,6.04154531 66.9900336,5.99717031 C67.0912319,5.95168594 66.9333181,5.78306094 66.9399905,5.75865469 C66.9466629,5.73092031 66.4784819,5.90731094 66.4862664,5.87846719 C66.4028612,5.81634219 66.4706974,5.74867031 66.4551284,5.66102969 C66.8165509,5.41918594 67.4715595,5.22726406 67.8707922,5.48574844 C67.6606112,5.63551406 67.9386284,5.74090469 67.9819991,6.02046719 C67.9975681,6.23679531 67.9208353,6.35217031 67.8863612,6.59401406 C67.8641198,6.81145156 67.8418784,6.82587344 67.898594,6.88910781" id="Fill-43" fill="#AE9A64" fill-rule="evenodd"></path><path d="M67.4229621,17.3783594 C67.4229621,17.3783594 66.825781,16.9667813 66.0695741,17.1498281 C65.3222638,17.3007031 64.8496345,17.6124375 64.1134448,17.6124375 C63.4028328,17.6124375 62.7122379,17.2485625 62.0472207,17.1498281 C61.2999103,17.0388906 60.9051259,17.3561719 60.9051259,17.3561719 L60.9051259,16.658375 C60.9051259,16.658375 61.3065828,16.3322188 62.0538931,16.4431563 C62.7189103,16.5418906 63.4095052,16.9057656 64.1201172,16.9057656 C64.8563069,16.9057656 65.3289362,16.5940313 66.0762466,16.4431563 C66.8324534,16.2601094 67.4229621,16.6650313 67.4229621,16.6650313 L67.4229621,17.3783594" id="Fill-45" fill="#AE9A64" fill-rule="evenodd"></path><path d="M67.4229621,15.3134797 C67.4229621,15.3134797 66.825781,14.9019016 66.0695741,15.0849484 C65.3222638,15.2369328 64.8496345,15.5475578 64.1134448,15.5475578 C63.4028328,15.5475578 62.7122379,15.1836828 62.0472207,15.0849484 C61.2999103,14.9751203 60.9051259,15.2924016 60.9051259,15.2924016 L60.9051259,14.5946047 C60.9051259,14.5946047 61.3065828,14.2684484 62.0538931,14.3782766 C62.7189103,14.4770109 63.4095052,14.8408859 64.1201172,14.8408859 C64.8563069,14.8408859 65.3289362,14.5291516 66.0762466,14.3782766 C66.8324534,14.1952297 67.4229621,14.6012609 67.4229621,14.6012609 L67.4229621,15.3134797" id="Fill-47" fill="#AE9A64" fill-rule="evenodd"></path><path d="M24.0343681,22.3413703 C25.3532819,21.6824016 27.6752819,21.5603703 28.918575,21.8754328 C30.030644,22.1128391 31.0704284,22.5643547 31.8611095,23.1134953 C30.5043853,23.8601047 28.9686181,24.4469641 27.2037647,24.6666203 C27.1059026,24.4170109 26.9124026,24.7664641 26.741144,24.7320734 C26.1795491,24.5079797 25.3955405,24.8862766 24.9017819,24.3637609 C24.5670491,24.4236672 24.3779974,24.0531359 24.0755147,23.9433078 C23.6607129,24.0908547 23.8408681,23.4906828 23.4961267,23.3819641 C23.2570319,22.8461359 23.7541267,22.6519953 24.0343681,22.3413703 M24.4247043,21.7301047 C24.7850147,21.3318391 25.4622647,21.3396047 26.0049543,21.1831828 C27.3082991,21.0311984 28.5749457,20.9646359 29.8983078,21.1909484 C30.1729888,21.5991984 30.9625578,21.3041047 31.1527216,21.7179016 C31.836644,21.8510266 32.4527302,22.2814641 33.1055147,22.6264797 C33.7916612,22.0007922 34.6312733,21.8721047 35.3619026,21.2852453 C36.5840664,20.3777766 38.3878422,19.2706203 39.5165922,18.2000734 C40.3072733,17.9460266 40.6008595,17.0884797 41.4271267,16.7068547 C42.4646871,15.5142766 43.5289371,14.8253547 44.3196181,13.7703391 C43.9348422,13.7059953 43.6646095,14.1841359 43.3243164,14.1597297 C42.4669112,14.7532453 41.1780233,15.2003234 40.2805836,15.8393234 C39.7768164,15.9069953 39.255256,16.4417141 38.7503767,16.5082766 C36.3071612,17.5222453 33.3434974,19.1119797 30.2630664,18.4729797 C29.3767474,18.5184641 28.2157474,18.1579172 27.6663853,17.3835734 C27.0136009,16.2364797 28.015575,15.1714797 28.6917129,14.3339016 C29.3756353,13.6660578 30.3197819,13.1102609 31.1371526,12.5611203 C31.4374112,12.6287922 31.466325,12.3758547 31.6331353,12.3248234 C32.771894,11.4628391 34.3577043,11.4872453 35.6977474,11.1999172 C37.3914284,10.8715422 37.9363422,11.4872453 38.4401095,11.4195734 C38.4979371,11.7113391 38.738144,11.4473078 38.9205233,11.6891516 C39.0206095,11.9798078 39.2774974,12.0519172 39.2930664,12.3459016 C38.9227474,12.5333859 38.5980233,12.8040734 38.1821095,12.9516203 C37.174575,13.0891828 36.4773078,12.7031203 35.8923595,12.0585734 C34.6090319,11.7878859 33.4024371,12.1894797 32.1902819,12.4646047 C31.4040491,12.7996359 30.7501526,13.2566984 30.2686267,13.7448234 L29.9728164,13.7614641 C29.4156698,14.4226516 28.6650233,15.4321828 28.7528767,16.3141359 C28.9597216,17.0208078 29.6147302,17.4090891 30.176325,17.6320734 C30.5522043,17.5277922 30.5232905,17.7840578 30.8246612,17.8938859 C31.9689802,17.9194016 33.0754888,18.0292297 34.1608681,17.7618703 C37.675006,16.9875266 40.7943595,15.1359797 43.9203853,13.4120109 C44.5487043,13.2955266 45.1058509,12.6321203 45.7964457,12.8917141 C45.5873767,13.7470422 44.7633336,14.1697141 44.2439974,14.7443703 C44.0393767,14.8819328 43.9281698,15.1836828 43.6345836,15.2424797 C43.366575,15.7616672 42.8194371,15.8337766 42.5480922,16.3108078 C41.9286698,16.5959172 41.5071957,17.4201828 40.7976957,17.6254172 C40.3495319,17.9438078 40.1115491,18.2522141 39.6211267,18.5739328 C39.1407129,19.1042141 38.3166698,19.5279953 37.836256,20.0593859 C37.3369371,20.2113703 37.2324026,20.6384797 36.6863767,20.7094797 C35.7533509,21.4771672 34.384394,22.0118859 33.6226267,22.8106359 C33.6871267,23.2310891 34.2042388,23.4130266 34.4711353,23.6537609 C35.4152819,23.8989328 35.594325,24.9029172 36.5851784,25.2301828 C36.8943336,25.4675891 37.2957905,25.8691828 37.8462647,25.8813859 C39.1106871,26.5747453 41.0134371,27.3612922 42.737144,27.1449641 C42.9039543,27.0939328 42.9995922,27.3013859 43.1174716,27.1249953 C44.8055922,27.0373547 46.3446957,26.5348078 47.7414543,25.7438234 C49.1749112,24.8252609 50.3281267,23.4163547 50.9742388,22.0318547 C51.0854457,20.9291359 50.8085405,19.6777609 50.0401009,18.7458859 C49.7665319,18.3820109 49.3294888,18.1091047 48.9335922,17.8339797 L48.6455664,17.9748703 C48.3564284,18.1168703 48.1495836,18.2122766 47.9571957,18.5595109 C47.8771267,18.6482609 47.7481267,18.6138703 47.6636095,18.6183078 C47.639144,18.1556984 48.1762733,17.9160734 48.3675491,17.5255734 C48.6967216,17.3391984 49.0625922,17.0674016 49.5029716,17.3813547 L49.9244457,17.3591672 C50.057894,17.4789797 50.2780836,17.6365109 50.4537905,17.7541047 C51.0821095,18.4385891 51.6659457,19.0831359 51.6792905,20.1381516 C51.6414802,20.2235734 51.8138509,20.2990109 51.8138509,20.2990109 C51.6537129,20.4765109 51.9228336,20.7571828 51.6726181,20.8126516 C51.7137647,23.2155578 50.0323164,24.2317453 48.4175922,25.7083234 C45.736394,27.8316672 41.8597216,28.1611516 38.5991353,27.3191359 C37.4225664,26.6634953 36.1447991,26.5203859 35.3607905,25.2945266 C35.1216957,25.5596672 35.2195578,25.0060891 35.0193853,25.2290734 C34.1997905,24.9328703 33.8617216,24.1485422 33.0777129,23.7258703 C32.6629112,23.8734172 32.5428078,23.2044641 31.9611957,23.4041516 C31.3484457,23.8157297 30.8569112,24.1374484 30.0172991,24.2650266 C29.3178078,24.6388859 28.531575,24.9761359 27.6296871,24.7276359 C27.6875147,25.0194016 27.3027388,24.9561672 27.0591957,25.1381047 L26.3852819,25.2146516 C25.5590147,24.7930891 24.3757733,25.6151359 24.0732905,24.7021203 C23.6807302,24.4691516 23.3737991,24.2750109 22.9456526,24.1707297 C22.9701181,23.8323703 22.4963767,23.6881516 22.5631009,23.3464641 C22.8522388,22.4046047 23.5094716,22.0329641 24.4247043,21.7301047" id="Fill-49" fill="#AE9A64" fill-rule="evenodd"></path><path d="M24.0343681,22.3413703 C25.3532819,21.6824016 27.6752819,21.5603703 28.918575,21.8754328 C30.030644,22.1128391 31.0704284,22.5643547 31.8611095,23.1134953 C30.5043853,23.8601047 28.9686181,24.4469641 27.2037647,24.6666203 C27.1059026,24.4170109 26.9124026,24.7664641 26.741144,24.7320734 C26.1795491,24.5079797 25.3955405,24.8862766 24.9017819,24.3637609 C24.5670491,24.4236672 24.3779974,24.0531359 24.0755147,23.9433078 C23.6607129,24.0908547 23.8408681,23.4906828 23.4961267,23.3819641 C23.2570319,22.8461359 23.7541267,22.6519953 24.0343681,22.3413703 Z" id="Stroke-51" stroke="#AE9A64" stroke-width="0.341"></path><path d="M24.4248155,21.7303266 C24.7851259,21.3320609 25.4623759,21.3387172 26.0039534,21.1834047 C27.3084103,21.0314203 28.5739448,20.9659672 29.8973069,21.1911703 C30.1731,21.5983109 30.9615569,21.3043266 31.1528328,21.7159047 C31.8367552,21.8490297 32.4517293,22.2816859 33.1045138,22.6267016 C33.7917724,21.9999047 34.6302724,21.8723266 35.3620138,21.2854672 C36.5830655,20.3779984 38.3868414,19.2708422 39.5155914,18.1991859 C40.3062724,17.9462484 40.5998586,17.0875922 41.4261259,16.7070766 C42.4636862,15.5133891 43.5279362,14.8244672 44.3186172,13.7705609 C43.9349534,13.7062172 43.6636086,14.1843578 43.3244276,14.1599516 C42.4659103,14.7534672 41.1781345,15.2005453 40.2806948,15.8384359 C39.7769276,15.9072172 39.2542552,16.4408266 38.7493759,16.5084984 C36.3061603,17.5224672 33.3436086,19.1122016 30.2631776,18.4720922 C29.3768586,18.5175766 28.2147466,18.1570297 27.6664966,17.3837953 C27.0137121,16.2355922 28.0156862,15.1705922 28.6907121,14.3341234 C29.3757466,13.6651703 30.3198931,13.1093734 31.1372638,12.5602328 C31.4364103,12.6290141 31.4653241,12.3749672 31.6321345,12.3239359 C32.7720052,11.4619516 34.3567034,11.4874672 35.6967466,11.2001391 C37.3915397,10.8717641 37.9364534,11.4874672 38.4402207,11.4197953 C38.4980483,11.7115609 38.7382552,11.4464203 38.9195224,11.6893734 C39.0196086,11.9800297 39.2776086,12.0510297 39.2931776,12.3450141 C38.9217466,12.5336078 38.5981345,12.8031859 38.1822207,12.9518422 C37.1735741,13.0894047 36.4763069,12.7033422 35.8924707,12.0587953 C34.6091431,11.7881078 33.4025483,12.1885922 32.189281,12.4637172 C31.4030483,12.7998578 30.7502638,13.2558109 30.2676259,13.7450453 L29.9729276,13.7605766 C29.414669,14.4228734 28.6640224,15.4324047 28.7529879,16.3143578 C28.9587207,17.0210297 29.6137293,17.4082016 30.1764362,17.6322953 C30.5512034,17.5280141 30.5222897,17.7831703 30.8247724,17.8929984 C31.9690914,17.9185141 33.0744879,18.0294516 34.1609793,17.7609828 C37.6751172,16.9866391 40.7933586,15.1362016 43.9193845,13.4111234 C44.5477034,13.2946391 45.1059621,12.6323422 45.7965569,12.8919359 C45.5874879,13.7461547 44.7634448,14.1699359 44.2429966,14.7445922 C44.0394879,14.8821547 43.928281,15.1839047 43.6346948,15.2404828 C43.3655741,15.7618891 42.8195483,15.8317797 42.5482034,16.3099203 C41.928781,16.5961391 41.5061948,17.4192953 40.7978069,17.6256391 C40.348531,17.9440297 40.1105483,18.2524359 39.6201259,18.5730453 C39.1408241,19.1044359 38.316781,19.5271078 37.8363672,20.0584984 C37.3370483,20.2115922 37.2325138,20.6387016 36.6853759,20.7097016 C35.75235,21.4762797 34.3845052,22.0109984 33.6227379,22.8108578 C33.6861259,23.2290922 34.20435,23.4132484 34.4701345,23.6528734 C35.414281,23.8991547 35.5944362,24.9020297 36.5852897,25.2304047 C36.8933328,25.4667016 37.2959017,25.8682953 37.8463759,25.8816078 C39.1096862,26.5749672 41.0135483,27.3615141 42.7372552,27.1451859 C42.9029534,27.0941547 42.9985914,27.3004984 43.1164707,27.1252172 C44.8045914,27.0364672 46.3436948,26.5339203 47.7415655,25.7440453 C49.1739103,24.8254828 50.3271259,23.4154672 50.97435,22.0309672 C51.0855569,20.9271391 50.8075397,19.6757641 50.0391,18.7472172 C49.7666431,18.3800141 49.3296,18.1082172 48.9337034,17.8330922 L48.6445655,17.9750922 C48.3565397,18.1170922 48.1496948,18.2113891 47.9561948,18.5597328 C47.8761259,18.6484828 47.7471259,18.6129828 47.6637207,18.6174203 C47.6381431,18.1537016 48.1763845,17.9162953 48.3676603,17.5257953 C48.6957207,17.3394203 49.0627034,17.0676234 49.5030828,17.3815766 L49.9245569,17.3604984 C50.0580052,17.4792016 50.2781948,17.6378422 50.4527897,17.7543266 C51.0811086,18.4388109 51.6660569,19.0833578 51.6782897,20.1372641 C51.6404793,20.2237953 51.8139621,20.2992328 51.8139621,20.2992328 C51.6538241,20.4756234 51.9229448,20.7574047 51.6716172,20.8128734 C51.7127638,23.2157797 50.0313155,24.2319672 48.4165914,25.7085453 C45.7353931,27.8318891 41.8587207,28.1613734 38.5992466,27.3193578 C37.4215655,26.6626078 36.1449103,26.5194984 35.3609017,25.2936391 C35.1206948,25.5598891 35.2185569,25.0063109 35.0183845,25.2270766 C34.1999017,24.9330922 33.8618328,24.1487641 33.0778241,23.7249828 C32.6630224,23.8736391 32.542919,23.2046859 31.9613069,23.4043734 C31.3474448,23.8159516 30.8570224,24.1365609 30.0174103,24.2652484 C29.3168069,24.6391078 28.5305741,24.9752484 27.6297983,24.7278578 C27.6865138,25.0196234 27.30285,24.9552797 27.0581948,25.1372172 L26.3853931,25.2148734 C25.5591259,24.7933109 24.3747724,25.6153578 24.0734017,24.7023422 C23.6797293,24.4693734 23.3739103,24.2752328 22.9446517,24.1709516 C22.9691172,23.8325922 22.4964879,23.6872641 22.5632121,23.3466859 C22.85235,22.4026078 23.5095828,22.0309672 24.4248155,21.7303266 Z" id="Stroke-53" stroke="#AE9A64" stroke-width="0.341"></path><path d="M104.645801,22.3413703 C103.326887,21.6824016 101.004887,21.5603703 99.761594,21.8754328 C98.6484129,22.1128391 97.6097405,22.5643547 96.8190595,23.1134953 C98.1757836,23.8601047 99.7115509,24.4469641 101.476404,24.6666203 C101.574266,24.4170109 101.767766,24.7664641 101.939025,24.7320734 C102.50062,24.5079797 103.284628,24.8862766 103.778387,24.3637609 C104.11312,24.4236672 104.302172,24.0531359 104.603542,23.9433078 C105.019456,24.0908547 104.839301,23.4906828 105.184042,23.3819641 C105.423137,22.8461359 104.926042,22.6519953 104.645801,22.3413703 M103.912947,21.6446828 C103.552637,21.2475266 102.875387,21.2541828 102.333809,21.0988703 C101.029353,20.9457766 99.7638181,20.8803234 98.439344,21.1066359 C98.1646629,21.5137766 97.376206,21.2186828 97.1849302,21.6313703 C96.5010078,21.7644953 95.8860336,22.1960422 95.2332491,22.5432766 C94.5459905,21.9153703 93.7063784,21.7866828 92.9757491,21.2009328 C91.7535853,20.2923547 89.9498095,19.1851984 88.8221716,18.1135422 C88.0303784,17.8617141 87.7367922,17.0030578 86.9116371,16.6225422 C85.8729647,15.4288547 84.8098267,14.7388234 84.0180336,13.6849172 C84.4028095,13.6216828 84.6741543,14.0987141 85.0133353,14.0743078 C85.8707405,14.6678234 87.1596284,15.1149016 88.0570681,15.7539016 C88.5608353,15.8215734 89.0835078,16.3551828 89.587275,16.4239641 C92.0304905,17.4368234 94.9941543,19.0276672 98.0745853,18.3875578 C98.9609043,18.4341516 100.123016,18.0713859 100.671266,17.2981516 C101.324051,16.1510578 100.322077,15.0860578 99.6470509,14.2484797 C98.9620164,13.5817453 98.0178698,13.0259484 97.2004991,12.4756984 C96.9002405,12.5444797 96.8713267,12.2893234 96.7056284,12.2394016 C95.5657578,11.3774172 93.9810595,11.4040422 92.6410164,11.1144953 C90.9462233,10.7861203 90.4013095,11.4040422 89.8975422,11.3341516 C89.8397147,11.6281359 89.5995078,11.3618859 89.4171284,11.6048391 C89.3181543,11.8943859 89.0601543,11.9653859 89.0445853,12.2604797 C89.4160164,12.4479641 89.7396284,12.7186516 90.1555422,12.8661984 C91.1641888,13.0037609 91.861456,12.6176984 92.4452922,11.9731516 C93.7286198,11.7035734 94.9352147,12.1040578 96.1473698,12.3791828 C96.9347147,12.7142141 97.5874991,13.1701672 98.069025,13.6594016 L98.3648353,13.6749328 C98.9219819,14.3372297 99.6737405,15.3467609 99.584775,16.2287141 C99.3779302,16.9353859 98.7229216,17.3236672 98.1613267,17.5477609 C97.7854474,17.4423703 97.8143612,17.6975266 97.5129905,17.8084641 C96.3686716,17.8339797 95.263275,17.9438078 94.1767836,17.6764484 C90.6626457,16.9032141 87.5432922,15.0516672 84.4183784,13.3265891 C83.7900595,13.2101047 83.2318009,12.5466984 82.541206,12.8062922 C82.750275,13.6627297 83.5743181,14.0854016 84.0936543,14.6600578 C84.298275,14.7965109 84.4094819,15.0993703 84.7030681,15.1559484 C84.9721888,15.6762453 85.5182147,15.7483547 85.7895595,16.2253859 C86.4089819,16.5104953 86.8315681,17.3347609 87.539956,17.5399953 C87.9881198,17.8594953 88.2261026,18.1667922 88.7176371,18.4885109 C89.1969388,19.0187922 90.0209819,19.4436828 90.5013957,19.9739641 C91.0007147,20.1259484 91.1052491,20.5541672 91.6523871,20.6240578 C92.5843009,21.3917453 93.9532578,21.9264641 94.715025,22.7263234 C94.650525,23.1456672 94.1334129,23.3287141 93.8676284,23.5672297 C92.9234819,23.8135109 92.7433267,24.8174953 91.7524733,25.1447609 C91.4444302,25.3821672 91.0418612,25.7837609 90.4913871,25.7959641 C89.2280767,26.4893234 87.3242147,27.2758703 85.6005078,27.0595422 C85.4336974,27.0085109 85.3380595,27.2159641 85.2212922,27.0395734 C83.5331716,26.9519328 81.992956,26.4493859 80.5961974,25.6584016 C79.1638526,24.7398391 78.0106371,23.3309328 77.3634129,21.9464328 C77.252206,20.8426047 77.5302233,19.5912297 78.2975509,18.6615734 C78.5711198,18.2965891 79.0081629,18.0225734 79.4040595,17.7485578 L79.6920853,17.8894484 C79.9812233,18.0314484 80.1880681,18.1268547 80.3815681,18.4751984 C80.4616371,18.5639484 80.589525,18.5273391 80.6740422,18.5317766 C80.6985078,18.0691672 80.1613784,17.8306516 79.9701026,17.4401516 C79.6409302,17.2537766 79.2750595,16.9819797 78.8346802,17.2959328 L78.413206,17.2748547 C78.2797578,17.3935578 78.0606802,17.5521984 77.8849733,17.6686828 C77.2566543,18.3531672 76.671706,18.9977141 76.6594733,20.0527297 C76.6972836,20.1392609 76.5238009,20.2135891 76.5238009,20.2135891 C76.6839388,20.3910891 76.4148181,20.6717609 76.6661457,20.7272297 C76.6238871,23.1301359 78.3053353,24.1463234 79.9211716,25.6240109 C82.6023698,27.7462453 86.4779302,28.0757297 89.7385164,27.2337141 C90.9161974,26.5780734 92.1928526,26.4338547 92.9768612,25.2091047 C93.215956,25.4742453 93.119206,24.9206672 93.3182664,25.1425422 C94.1378612,24.8474484 94.4759302,24.0642297 95.2599388,23.6404484 C95.6747405,23.7902141 95.794844,23.1201516 96.376456,23.3187297 C96.9903181,23.7303078 97.4807405,24.0520266 98.3203526,24.1796047 C99.019844,24.5534641 99.8060767,24.8907141 100.707965,24.6422141 C100.650137,24.9350891 101.034913,24.8707453 101.279568,25.0515734 L101.95237,25.1303391 C102.778637,24.7087766 103.961878,25.5297141 104.264361,24.6178078 C104.656922,24.3859484 104.963853,24.1895891 105.391999,24.0853078 C105.367534,23.7480578 105.841275,23.6038391 105.774551,23.2610422 C105.485413,22.3180734 104.82818,21.9475422 103.912947,21.6446828" id="Fill-55" fill="#AE9A64" fill-rule="evenodd"></path><path d="M104.645801,22.3413703 C103.326887,21.6824016 101.004887,21.5603703 99.761594,21.8754328 C98.6484129,22.1128391 97.6097405,22.5643547 96.8190595,23.1134953 C98.1757836,23.8601047 99.7115509,24.4469641 101.476404,24.6666203 C101.574266,24.4170109 101.767766,24.7664641 101.939025,24.7320734 C102.50062,24.5079797 103.284628,24.8862766 103.778387,24.3637609 C104.11312,24.4236672 104.302172,24.0531359 104.603542,23.9433078 C105.019456,24.0908547 104.839301,23.4906828 105.184042,23.3819641 C105.423137,22.8461359 104.926042,22.6519953 104.645801,22.3413703 Z" id="Stroke-57" stroke="#AE9A64" stroke-width="0.341"></path><path d="M103.913281,21.6446828 C103.552971,21.2475266 102.875721,21.2530734 102.334143,21.0977609 C101.029686,20.9457766 99.7641517,20.8803234 98.4396776,21.1066359 C98.1649966,21.5126672 97.3765397,21.2186828 97.1852638,21.6302609 C96.5013414,21.7633859 95.8863672,22.1960422 95.2335828,22.5421672 C94.5463241,21.9142609 93.7067121,21.7866828 92.9760828,21.2009328 C91.755031,20.2923547 89.9512552,19.1851984 88.8225052,18.1135422 C88.0307121,17.8606047 87.7382379,17.0019484 86.9119707,16.6214328 C85.8744103,15.4277453 84.8101603,14.7388234 84.0194793,13.6849172 C84.4031431,13.6216828 84.6744879,14.0987141 85.013669,14.0743078 C85.8721862,14.6678234 87.1599621,15.1149016 88.0574017,15.7527922 C88.562281,15.8204641 89.0838414,16.3551828 89.5876086,16.4228547 C92.0319362,17.4368234 94.9944879,19.0276672 98.074919,18.3853391 C98.9612379,18.4319328 100.12335,18.0702766 100.6716,17.2981516 C101.324384,16.1499484 100.32241,15.0849484 99.6473845,14.2484797 C98.96235,13.5795266 98.0182034,13.0237297 97.2008328,12.4745891 C96.9016862,12.5433703 96.8727724,12.2882141 96.7059621,12.2382922 C95.5660914,11.3763078 93.9813931,11.4029328 92.64135,11.1144953 C90.9465569,10.7861203 90.4016431,11.4029328 89.8978759,11.3341516 C89.8400483,11.6259172 89.5998414,11.3607766 89.4185741,11.6037297 C89.3184879,11.8943859 89.0604879,11.9653859 89.044919,12.2593703 C89.41635,12.4479641 89.7399621,12.7175422 90.1558759,12.8661984 C91.1645224,13.0037609 91.8617897,12.6176984 92.4456259,11.9731516 C93.7289534,11.7024641 94.9355483,12.1029484 96.1488155,12.3780734 C96.9350483,12.7142141 97.5878328,13.1701672 98.0704707,13.6594016 L98.365169,13.6749328 C98.9234276,14.3372297 99.6740741,15.3467609 99.5851086,16.2287141 C99.3782638,16.9353859 98.7232552,17.3225578 98.1616603,17.5477609 C97.7868931,17.4423703 97.8146948,17.6964172 97.5133241,17.8073547 C96.3690052,17.8328703 95.2636086,17.9438078 94.1771172,17.6753391 C90.6629793,16.9021047 87.5447379,15.0516672 84.4187121,13.3254797 C83.7903931,13.2089953 83.2321345,12.5466984 82.5415397,12.8062922 C82.7506086,13.6605109 83.5746517,14.0842922 84.0951,14.6589484 C84.2986086,14.7965109 84.4098155,15.0993703 84.7034017,15.1548391 C84.9725224,15.6762453 85.5185483,15.7472453 85.7898931,16.2242766 C86.4093155,16.5104953 86.8319017,17.3336516 87.5402897,17.5399953 C87.9895655,17.8583859 88.2264362,18.1667922 88.7179707,18.4874016 C89.1972724,19.0187922 90.0213155,19.4425734 90.5017293,19.9728547 C91.0010483,20.1259484 91.1055828,20.5541672 91.6527207,20.6240578 C92.5857466,21.3906359 93.9535914,21.9253547 94.7153586,22.7263234 C94.6508586,23.1445578 94.1337466,23.3287141 93.8679621,23.5672297 C92.9238155,23.8135109 92.7436603,24.8163859 91.7528069,25.1447609 C91.4447638,25.3821672 91.0433069,25.7826516 90.4917207,25.7959641 C89.2284103,26.4893234 87.3245483,27.2758703 85.6008414,27.0595422 C85.4351431,27.0085109 85.3395052,27.2148547 85.2216259,27.0395734 C83.5335052,26.9508234 81.9944017,26.4493859 80.596531,25.6584016 C79.1641862,24.7398391 78.0109707,23.3298234 77.3637466,21.9453234 C77.2525397,20.8414953 77.5305569,19.5901203 78.2989966,18.6615734 C78.5714534,18.2943703 79.0096086,18.0225734 79.4043931,17.7474484 L79.693531,17.8894484 C79.982669,18.0314484 80.1884017,18.1257453 80.3819017,18.4751984 C80.4619707,18.5639484 80.5909707,18.5273391 80.6754879,18.5317766 C80.6999534,18.0691672 80.1617121,17.8306516 79.9704362,17.4390422 C79.6423759,17.2537766 79.2753931,16.9819797 78.8361259,17.2959328 L78.4135397,17.2748547 C78.2800914,17.3935578 78.0610138,17.5521984 77.8853069,17.6686828 C77.2569879,18.3531672 76.6731517,18.9977141 76.6598069,20.0516203 C76.6976172,20.1392609 76.5241345,20.2135891 76.5241345,20.2135891 C76.6842724,20.3899797 76.4151517,20.6717609 76.6664793,20.7272297 C76.6253328,23.1301359 78.305669,24.1463234 79.9215052,25.6229016 C82.6027034,27.7462453 86.4782638,28.0757297 89.73885,27.2337141 C90.916531,26.5780734 92.1931862,26.4327453 92.9771948,25.2079953 C93.2174017,25.4742453 93.1195397,24.9206672 93.3186,25.1414328 C94.1381948,24.8485578 94.4762638,24.0642297 95.2602724,23.6393391 C95.6750741,23.7891047 95.7951776,23.1190422 96.3767897,23.3187297 C96.9906517,23.7303078 97.4810741,24.0509172 98.3206862,24.1796047 C99.0212897,24.5534641 99.8075224,24.8896047 100.70941,24.6422141 C100.651583,24.9339797 101.035247,24.8696359 101.279902,25.0515734 L101.952703,25.1303391 C102.778971,24.7087766 103.963324,25.5297141 104.264695,24.6178078 C104.658367,24.3837297 104.964186,24.1895891 105.393445,24.0853078 C105.368979,23.7469484 105.841609,23.6027297 105.774884,23.2610422 C105.485747,22.3169641 104.828514,21.9453234 103.913281,21.6446828 Z" id="Stroke-59" stroke="#AE9A64" stroke-width="0.341"></path></g></g></g></g></g></svg> 